<?xml version="1.0" encoding="utf-8"?>
<!-- Generator: Adobe Illustrator 16.0.3, SVG Export Plug-In . SVG Version: 6.00 Build 0)  -->
<!DOCTYPE svg PUBLIC "-//W3C//DTD SVG 1.1//EN" "http://www.w3.org/Graphics/SVG/1.1/DTD/svg11.dtd">
<svg version="1.1" id="Capa_1" xmlns="http://www.w3.org/2000/svg" xmlns:xlink="http://www.w3.org/1999/xlink" x="0px" y="0px"
	 width="468px" height="439px" viewBox="0 0 468 439" enable-background="new 0 0 468 439" xml:space="preserve">
<g>
	<path fill-rule="evenodd" clip-rule="evenodd" fill="#F7FB03" d="M107.811,229.385c0,0,17.873,34.256,53.618,102.767
		c0,0,7.332-13.522,21.995-40.567c10.624-19.595,25.097-46.287,43.418-80.079c0,0-18.298-34.468-54.894-103.404
		C129.189,188.957,107.811,229.385,107.811,229.385z"/>
	<path fill-rule="evenodd" clip-rule="evenodd" fill="#F2C503" d="M183.423,291.584c-14.664,27.045-21.995,40.567-21.995,40.567
		c85.743-0.218,128.615-0.326,128.615-0.326c-13.213-28.139-19.82-42.208-19.82-42.208
		C212.356,290.929,183.423,291.584,183.423,291.584z"/>
	<path fill-rule="evenodd" clip-rule="evenodd" fill="#0A0748" d="M181.332,91.105c123.054,231.866,184.582,347.799,184.582,347.799
		s9.186-0.095,27.556-0.283L342.005,335.56l22.075-31.966l74.218,134.564c5.61-0.057,11.546-0.188,17.809-0.184
		c8.442,0.007,14.08-4.221,7.876-15.979C344.271,195.139,271.514,58.653,246.785,11.97c-9.063-17.107-17.306-4.861-19.458-1.02
		c-3.063,5.466-6.079,10.593-8.88,15.475l59.441,113.156l-20.775,32.972L196.805,64.141
		C186.49,82.117,181.332,91.105,181.332,91.105z"/>
	<path fill-rule="evenodd" clip-rule="evenodd" fill="#0A0748" d="M186.848,415.807c0,0-31.571-57.776-88.881-167.932
		c0,0-31.192,59.209-93.576,177.627c-2.498,4.741,1.773,13.512,9.73,13.485c17.252-0.058,47.742-0.155,91.469-0.298
		c0,0,11.585-22.015,34.756-66.042c0,0,7.31,14.386,21.929,43.157C162.275,415.805,170.466,415.806,186.848,415.807z"/>
	<path fill-rule="evenodd" clip-rule="evenodd" fill="#D1E50A" d="M183.423,291.584c10.624-19.595,25.097-46.287,43.418-80.079
		c0,0-18.298-34.468-54.894-103.404c-42.758,80.856-64.137,121.284-64.137,121.284s17.873,34.256,53.618,102.767
		C161.428,332.151,168.76,318.629,183.423,291.584z"/>
	<path fill-rule="evenodd" clip-rule="evenodd" fill="#DBEF2A" d="M270.223,289.617c-57.866,1.312-86.799,1.967-86.799,1.967
		c-14.664,27.045-21.995,40.567-21.995,40.567c85.743-0.218,128.615-0.326,128.615-0.326
		C276.83,303.687,270.223,289.617,270.223,289.617z"/>
</g>
</svg>
