<?xml version="1.0" encoding="utf-8"?>
<!-- Generator: Adobe Illustrator 16.0.3, SVG Export Plug-In . SVG Version: 6.00 Build 0)  -->
<!DOCTYPE svg PUBLIC "-//W3C//DTD SVG 1.1//EN" "http://www.w3.org/Graphics/SVG/1.1/DTD/svg11.dtd">
<svg version="1.1" xmlns="http://www.w3.org/2000/svg" xmlns:xlink="http://www.w3.org/1999/xlink" x="0px" y="0px"
	 width="89.667px" height="45.833px" viewBox="5.917 22.5 89.667 45.833" enable-background="new 5.917 22.5 89.667 45.833"
	 xml:space="preserve">
<g id="Capa_2">
</g>
<g id="Capa_1">
	<g>
		<path fill="#FFFFFF" d="M19.684,49.689c2.932-0.453,5.876-0.875,8.702-1.834c2.216-0.42,4.232-1.373,6.249-2.324
			c4.501-2.122,8.95-4.381,13.917-5.271c1.769-0.244,3.535-0.488,5.304-0.732c3.653-0.297,7.313-0.227,10.972-0.109
			c1.68,0.204,3.358,0.408,5.039,0.611c2.312,0.455,4.622,0.91,6.934,1.363c2.661,0.896,5.322,1.789,7.981,2.684
			c0.313,0.101,0.626,0.199,0.939,0.3c2.67,0.937,5.348,1.854,8.006,2.817c1.539,0.559,1.814,0.929,1.553,2.49
			c-0.405,2.403-0.274,4.762,0.188,7.141c0.29,1.48-0.036,2.936-0.532,4.35c-0.207,0.588-0.592,0.904-1.201,1.026
			c-2.693,0.536-5.385,1.091-8.332,1.69c1.125-1.681,1.029-3.291,0.559-4.931c-0.479-1.662-1.395-3.046-2.729-4.13
			c-2.416-1.964-6.375-2.182-9.147-0.541c-3.063,1.813-4.328,5.318-3.582,10.037c-4.323,0-8.638,0.003-12.95,0
			c-8.634-0.008-17.269-0.026-25.903-0.014c-0.903,0-1.352-0.002-1.243-1.223c0.254-2.867-0.271-5.607-2.477-7.71
			c-2.343-2.235-5.123-2.952-8.176-1.791c-3.267,1.243-4.893,3.825-5.283,7.228c-0.071,0.633-0.052,1.279-0.025,1.916
			c0.058,1.438,0.064,1.488-1.437,1.375c-1.591-0.121-3.175-0.344-4.76-0.533c-0.67-0.081-1.071-0.527-1.297-1.111
			c-1.006-2.59-0.943-5.15,0.313-7.646c0.43-0.854,1.239-1.336,2.046-1.785c2.499-1.395,5.229-2.146,7.977-2.85
			C17.498,50.128,19.108,49.777,19.684,49.689z"/>
		<path fill="#FFFFFF" d="M73.25,66.484c-3.357-3.808-2.129-7.963-0.092-10.055c2.57-2.64,6.678-2.93,9.572-0.648
			c2.898,2.283,3.568,6.326,1.565,9.449c-1.983,3.095-5.978,4.162-9.26,2.476c-0.354-0.181-0.702-0.37-1.054-0.556
			C73.738,66.93,73.495,66.707,73.25,66.484z M75.898,65.516c2.277,1.278,4.869,0.733,6.348-1.334
			c1.475-2.063,1.141-4.718-0.813-6.441c-0.111-0.205-0.27-0.344-0.513-0.357c-2.202-1.464-4.94-0.986-6.521,1.135
			c-1.574,2.113-1.158,4.951,0.973,6.64C75.498,65.35,75.662,65.486,75.898,65.516z"/>
		<path fill="#FFFFFF" d="M26.878,66.816c-3.964,3.023-8.409,1.506-10.404-1.24c-2.128-2.928-1.756-7.018,0.902-9.451
			c2.765-2.531,6.934-2.544,9.681-0.031c2.66,2.434,3.064,6.53,0.934,9.454c-0.163,0.226-0.318,0.456-0.479,0.683
			C27.3,66.426,27.089,66.621,26.878,66.816z M25.947,64.346c1.466-1.81,1.516-4.084,0.131-5.926
			c-1.322-1.758-3.573-2.355-5.641-1.498c-0.351-0.005-0.607,0.171-0.832,0.418c-2.417,1.605-2.961,4.668-1.235,6.95
			c1.767,2.337,4.921,2.552,7.225,0.492C25.712,64.636,25.831,64.491,25.947,64.346z"/>
		<path fill="#FFFFFF" d="M76.55,28.521c-0.322-0.182-0.031-0.274,0.059-0.395c0.041,0,0.08,0.001,0.121-0.002
			c2.906-0.269,4.478-1.873,4.598-5.179c0.682,1.204,0.854,2.129,1.081,3.021c0.216,0.845,0.579,1.386,1.51,1.579
			c0.882,0.183,1.722,0.572,2.879,0.975c-1.265,0.376-2.239,0.699-3.233,0.95c-0.605,0.154-0.94,0.463-1.113,1.075
			c-0.275,0.98-0.639,1.936-0.963,2.897c-0.383-0.053-0.301-0.304-0.35-0.464C80.108,29.54,80.11,29.539,76.55,28.521z"/>
		<path fill="#FFFFFF" d="M24.932,26.741c0.447,1.277,0.845,2.263,1.13,3.279c0.164,0.584,0.48,0.835,1.032,0.979
			c1.001,0.263,1.987,0.587,3.271,0.975c-1.159,0.403-2.075,0.778-3.023,1.033c-0.742,0.2-1.129,0.587-1.297,1.34
			c-0.208,0.926-0.534,1.826-0.901,3.042c-0.411-1.173-0.787-2.053-1.021-2.97c-0.203-0.801-0.645-1.186-1.427-1.365
			c-0.928-0.212-1.831-0.531-2.966-0.869c1.135-0.401,2.048-0.795,3-1.039c0.758-0.194,1.122-0.593,1.293-1.335
			C24.238,28.882,24.559,27.979,24.932,26.741z"/>
		<path fill="#FFFFFF" d="M50.805,31.474c0.125,0.236,0.137,0.373-0.201,0.455c-0.395,0.096-0.762,0.299-1.141,0.456
			c-0.696-0.053-0.692,0.527-0.844,0.951c-0.158,0.444-0.286,0.898-0.521,1.407c-0.213-1.78-1.229-2.713-3.025-2.948
			c1.739-0.271,2.768-1.119,2.922-3.004C48.378,30.404,49.089,31.5,50.805,31.474z"/>
		<path fill="#FFFFFF" d="M73.891,29.097c-0.057,0.054-0.104,0.147-0.164,0.156c-1.564,0.229-2.68,0.92-2.789,2.84
			c-0.365-1.666-1.063-2.829-2.834-2.851c0.006-0.141-0.092-0.361,0.137-0.373c1.652-0.091,2.394-1.104,2.707-2.72
			C71.157,28,72.303,28.78,73.891,29.097z"/>
		<path fill="#FFFFFF" d="M40.389,32.399c-1.367,0.841-2.558,0.621-2.942-0.577c-0.274-0.854-0.038-1.585,0.74-2.068
			c0.824-0.512,1.727-0.188,2.516,0.859C40.881,31.258,40.68,31.836,40.389,32.399z"/>
		<path fill="#FFFFFF" d="M25.573,44.626c-1.147,1.382-2.021,1.394-3.216,0.043c-0.167-1.349,0.209-2.199,1.119-2.392
			c0.968-0.205,1.699,0.125,2.107,1.076C25.77,43.789,25.682,44.204,25.573,44.626z"/>
		<path fill="#FFFFFF" d="M84.781,36.436c0.533-0.234,1.363,0.036,1.501-0.877c0.134-0.28,0.266-0.561,0.518-1.093
			c0.154,1.321,0.792,1.971,2.19,2.124c-1.104,0.387-2.063,0.508-2.104,1.655c-0.007,0.177-0.132,0.307-0.314,0.237
			c-0.131-0.051-0.344-0.209-0.326-0.272c0.291-1.209-0.715-1.19-1.385-1.485C84.716,36.659,84.732,36.552,84.781,36.436z"/>
		<path fill="#FFFFFF" d="M30.079,35.648c0.162-0.385,0.324-0.77,0.52-1.228c0.216,0.48,0.396,0.883,0.577,1.286
			c0.316,0.545,1.045,0.28,1.456,0.763c-0.938,0.238-1.792,0.564-1.773,1.739c-0.105,0.071-0.213,0.144-0.318,0.216
			c-0.015-1.201-0.817-1.688-1.907-1.9C29.105,36.04,29.858,36.311,30.079,35.648z"/>
		<path fill="#FFFFFF" d="M59.277,30.705c1.34-0.622,2.602-0.271,3.24,0.901c0.604,1.104,0.291,2.474-0.725,3.18
			c-1.059,0.735-2.527,0.524-3.324-0.477c-0.884-1.111-0.71-2.349,0.484-3.465c0.057,0.063,0.111,0.126,0.169,0.189
			c-0.08,0.406,0.028,0.728,0.471,0.793c0.259,0.039,0.45-0.148,0.476-0.416c0.045-0.504-0.313-0.565-0.689-0.587
			C59.346,30.783,59.311,30.744,59.277,30.705z"/>
		<path fill="#FFFFFF" d="M58.955,30.843c0.105-0.046,0.215-0.092,0.322-0.139c0.033,0.04,0.066,0.079,0.103,0.118
			c-0.085,0.07-0.17,0.14-0.255,0.209C59.066,30.969,59.01,30.906,58.955,30.843z"/>
		<path fill="#FFFFFF" d="M59.124,31.032c0.085-0.07,0.17-0.14,0.255-0.209c0.378,0.021,0.734,0.083,0.689,0.587
			c-0.023,0.268-0.217,0.455-0.476,0.416C59.152,31.76,59.043,31.438,59.124,31.032z"/>
	</g>
</g>
</svg>
