<?xml version="1.0" encoding="utf-8"?>
<!-- Generator: Adobe Illustrator 16.0.3, SVG Export Plug-In . SVG Version: 6.00 Build 0)  -->
<!DOCTYPE svg PUBLIC "-//W3C//DTD SVG 1.1//EN" "http://www.w3.org/Graphics/SVG/1.1/DTD/svg11.dtd">
<svg version="1.1" id="Capa_1" xmlns="http://www.w3.org/2000/svg" xmlns:xlink="http://www.w3.org/1999/xlink" x="0px" y="0px"
	 width="99px" height="135px" viewBox="0 0 99 135" enable-background="new 0 0 99 135" xml:space="preserve">
<g>
	<path fill-rule="evenodd" clip-rule="evenodd" fill="#060606" d="M99.336,64.836c0,13.518-0.008,27.036,0.017,40.554
		c0.001,0.909-0.235,1.542-0.937,2.169c-6.854,6.13-13.682,12.292-20.492,18.472c-0.698,0.634-1.396,0.903-2.347,0.901
		c-9.118-0.032-18.237-0.01-27.356-0.027c-0.839-0.002-1.486,0.213-2.169,0.746c-8.99,7.019-18.87,8.484-29.125,3.535
		C6.59,126.198,1.374,117.505,1.494,105.999c0.09-8.634,3.916-15.614,10.698-20.939c0.701-0.551,1.003-1.064,1.001-1.97
		c-0.027-19.557-0.021-39.115-0.021-58.672c0-2.58,0.606-3.183,3.163-3.181c5.359,0.004,10.718-0.022,16.077,0.021
		c0.944,0.008,1.262-0.25,1.215-1.206c-0.074-1.516-0.039-3.039-0.011-4.558c0.027-1.489,0.818-2.307,2.305-2.327
		c2.519-0.034,5.04-0.05,7.558,0.007c0.875,0.02,1.119-0.235,1.21-1.116c0.602-5.797,5.042-10.179,10.625-10.581
		C60.97,1.07,66,4.639,67.467,10.122c0.176,0.653,0.309,1.335,0.322,2.007c0.016,0.854,0.39,1.051,1.183,1.036
		c2.358-0.044,4.719-0.016,7.078-0.008c2.148,0.007,2.84,0.713,2.848,2.902c0.005,1.2,0.001,2.399-0.002,3.6
		c-0.003,1.577-0.004,1.579,1.52,1.579c5.159,0.001,10.318-0.002,15.478,0.002c2.922,0.002,3.442,0.521,3.443,3.402
		C99.336,38.04,99.336,51.438,99.336,64.836z M15.803,66.238c-1.178,0.691-1.638,1.815-1.329,3.241
		c0.34,1.567,1.246,2.335,3.004,2.546c0.016,2.798,0.033,5.597,0.045,8.394c0.006,1.404,0.003,1.404,1.348,0.884
		c11.009-4.259,23.386-1.034,30.839,8.036c7.52,9.15,8.323,21.918,2.02,31.914c-0.221,0.351-0.616,0.639-0.554,1.189
		c0.198,0.023,0.387,0.066,0.577,0.066c8.038,0.004,16.077-0.008,24.114,0.02c0.86,0.003,1.069-0.303,1.064-1.111
		c-0.032-4.519,0.011-9.038-0.036-13.557c-0.01-0.942,0.252-1.227,1.203-1.218c5.038,0.043,10.078,0.025,15.116,0.018
		c2.017-0.003,1.755,0.167,1.755-1.701c0.006-25.755,0.004-51.509,0.004-77.263c0-0.44-0.007-0.88,0.007-1.32
		c0.017-0.549-0.218-0.788-0.785-0.787c-4.839,0.012-9.678,0.016-14.517,0.002c-0.661-0.002-0.804,0.313-0.787,0.891
		c0.028,0.999,0.009,2,0.007,2.999c-0.006,2.239-0.698,2.935-2.947,2.936c-9.037,0.004-18.076,0.003-27.113,0.002
		c-4.239,0-8.479,0.008-12.717-0.01c-1.692-0.007-2.478-0.815-2.506-2.514c-0.018-1.04-0.074-2.084,0.008-3.118
		c0.078-0.979-0.309-1.21-1.224-1.202c-4.519,0.038-9.038,0.048-13.557-0.006c-1.047-0.012-1.347,0.271-1.342,1.339
		c0.043,9.358,0.029,18.716,0.022,28.074c-0.002,3.518-0.028,7.036-0.043,10.554C16.902,65.727,16.235,65.702,15.803,66.238z
		 M51.589,106.668c0.028-12.522-10.255-22.839-22.799-22.875C16.223,83.758,5.846,93.991,5.785,106.481
		c-0.063,12.699,10.206,23.1,22.818,23.113C41.309,129.608,51.561,119.384,51.589,106.668z M56.205,28.073
		c5.717,0,11.434-0.018,17.15,0.019c0.883,0.005,1.19-0.229,1.173-1.142c-0.053-2.797-0.05-5.597-0.005-8.395
		c0.014-0.859-0.29-1.082-1.106-1.068c-2.598,0.042-5.196,0.033-7.796,0.006c-1.77-0.019-2.627-1.066-2.352-2.798
		c0.111-0.71,0.238-1.416,0.178-2.143c-0.342-4.168-4.05-7.233-8.101-6.687c-4.199,0.566-6.949,4.384-6.173,8.573
		c0.375,2.03-0.462,3.056-2.523,3.063c-2.559,0.009-5.118,0.034-7.676-0.014c-0.803-0.016-1.033,0.25-1.023,1.023
		c0.034,2.798,0.056,5.598-0.011,8.395c-0.024,0.987,0.322,1.193,1.234,1.188C44.851,28.055,50.528,28.073,56.205,28.073z"/>
	<path fill-rule="evenodd" clip-rule="evenodd" fill="#FCFCFC" d="M17.479,65.537c0.015-3.518,0.041-7.036,0.043-10.554
		c0.006-9.358,0.021-18.716-0.022-28.074c-0.005-1.069,0.295-1.352,1.342-1.339c4.519,0.054,9.038,0.044,13.557,0.006
		c0.915-0.008,1.302,0.223,1.224,1.202c-0.082,1.033-0.025,2.078-0.008,3.118c0.028,1.699,0.813,2.507,2.506,2.514
		c4.239,0.018,8.478,0.01,12.717,0.01c9.037,0.001,18.076,0.002,27.113-0.002c2.249-0.001,2.941-0.697,2.947-2.936
		c0.002-1,0.021-2-0.007-2.999c-0.017-0.579,0.126-0.893,0.787-0.891c4.839,0.014,9.678,0.01,14.517-0.002
		c0.567-0.001,0.802,0.238,0.785,0.787c-0.014,0.439-0.007,0.88-0.007,1.32c0,25.754,0.002,51.508-0.004,77.263
		c0,1.868,0.262,1.698-1.755,1.701c-5.038,0.008-10.078,0.025-15.116-0.018c-0.951-0.009-1.213,0.275-1.203,1.218
		c0.047,4.519,0.004,9.038,0.036,13.557c0.005,0.809-0.204,1.114-1.064,1.111c-8.037-0.027-16.076-0.016-24.114-0.02
		c-0.19,0-0.379-0.043-0.577-0.066c-0.062-0.551,0.333-0.839,0.554-1.189c6.303-9.996,5.5-22.764-2.02-31.914
		c-7.453-9.07-19.83-12.295-30.839-8.036c-1.345,0.521-1.342,0.521-1.348-0.884c-0.013-2.797-0.03-5.596-0.045-8.394
		c0-0.163,0-0.325,0-0.489c-0.005-0.316-0.011-0.631-0.017-0.947c0.007-0.164,0.015-0.328,0.021-0.492
		c0.001-0.877,0.002-1.754,0.002-2.632c-0.01-0.164-0.02-0.328-0.029-0.492c0.002-0.314,0.004-0.629,0.006-0.943
		C17.467,65.865,17.474,65.701,17.479,65.537z M28.399,69.479l-0.001-0.004c-0.048,0.021-0.06,0.056-0.038,0.103
		c-0.231,0.603-0.006,1.089,0.388,1.533c0.245,0.495,0.696,0.673,1.195,0.776c0.562,0.257,1.143,0.175,1.724,0.1
		c0.795,0.002,1.591,0.002,2.387,0.002c0.646,0.09,1.291,0.096,1.935-0.009c0.236,0.006,0.471,0.013,0.707,0.019
		c0.484-0.006,0.968-0.01,1.452-0.015c0.555,0.001,1.11,0.001,1.665,0.001c0.485,0,0.97,0,1.455,0.001
		c0.635-0.001,1.27-0.001,1.905-0.001c0.4,0.095,0.8,0.099,1.199-0.006c0.598,0.002,1.196,0.006,1.794,0.008
		c0.527,0,1.054,0,1.582-0.001c0.315-0.001,0.63-0.001,0.946-0.001c0.804,0.115,1.609,0.098,2.414,0.006
		c1.756,0.001,3.512,0.002,5.268,0.004c0.805-0.002,1.608-0.004,2.412-0.006c0.91,0,1.819,0.001,2.729,0.002
		c0.451-0.004,0.902-0.008,1.354-0.012c0.592,0.002,1.184,0.004,1.775,0.006c0.49,0.1,0.98,0.098,1.471,0.004
		c0.593,0,1.186,0.002,1.779,0.004c0.484-0.002,0.969-0.003,1.452-0.004c0.556-0.001,1.111-0.002,1.667-0.003
		c0.524,0.003,1.05,0.005,1.575,0.007c0.995,0,1.99,0,2.985,0c1.045-0.002,2.089-0.004,3.133-0.006
		c1.154,0.012,2.311,0.068,3.463,0.021c1.177-0.047,2.017-0.955,2.046-2.087c0.03-1.189-0.809-2.145-2.044-2.199
		c-1.071-0.047-2.147,0.021-3.221,0.039c-0.246-0.01-0.491-0.02-0.737-0.029c-0.314,0.009-0.629,0.019-0.943,0.029
		c-0.245-0.011-0.49-0.022-0.735-0.034c-0.234,0.017-0.469,0.033-0.702,0.05c-0.166-0.014-0.333-0.028-0.499-0.042
		c-0.235,0.005-0.47,0.011-0.704,0.016c-0.167,0-0.333-0.001-0.499-0.001c-0.475-0.004-0.948-0.007-1.423-0.011
		c-0.166,0.005-0.332,0.01-0.497,0.015c-0.234-0.005-0.469-0.01-0.703-0.016c-0.245,0-0.49,0.001-0.735,0.002
		c-0.395,0.001-0.789,0.002-1.184,0.004c-0.166,0.002-0.332,0.005-0.498,0.008c-0.954,0.001-1.907,0.003-2.86,0.005
		c-0.166-0.003-0.332-0.007-0.498-0.01c-0.234,0.001-0.469,0.003-0.703,0.004c-0.166-0.002-0.332-0.005-0.498-0.008
		c-0.473,0.005-0.947,0.009-1.42,0.014c-0.166-0.005-0.332-0.011-0.498-0.016c-0.234,0.004-0.469,0.009-0.703,0.013
		c-0.166-0.004-0.332-0.008-0.498-0.012c-1.515-0.001-3.029-0.002-4.545-0.002c-0.165,0.005-0.33,0.01-0.496,0.015
		c-0.234-0.004-0.469-0.009-0.703-0.013c-0.166,0.005-0.332,0.011-0.498,0.016c-0.953-0.094-1.906-0.111-2.859-0.006
		c-0.166-0.001-0.332-0.003-0.499-0.005c-0.234,0-0.469,0-0.703,0.001c-0.166,0-0.332-0.001-0.498-0.002
		c-0.954,0.002-1.908,0.004-2.861,0.006c-0.166-0.002-0.332-0.004-0.498-0.006c-0.234,0.001-0.468,0.001-0.703,0.002
		c-0.167,0.001-0.333,0.002-0.499,0.003c-0.474-0.092-0.947-0.102-1.42,0.005c-0.167-0.004-0.333-0.008-0.499-0.012
		c-0.234,0.001-0.469,0.002-0.703,0.003c-0.166,0.001-0.333,0.001-0.498,0.002c-0.953,0.004-1.906,0.009-2.859,0.013
		c-0.167-0.008-0.333-0.016-0.499-0.023c-0.396-0.003-0.791-0.006-1.187-0.009c-0.245,0.006-0.489,0.012-0.734,0.018
		c-0.235-0.004-0.47-0.008-0.705-0.013c-0.166,0.007-0.332,0.015-0.498,0.022c-0.713-0.104-1.426-0.111-2.139-0.002
		c-0.245-0.01-0.49-0.021-0.735-0.03c-0.234,0.014-0.469,0.027-0.703,0.041c-0.166-0.011-0.332-0.022-0.498-0.034
		c-0.635-0.042-1.27-0.099-1.898,0.058c-0.229-0.113-0.455-0.149-0.672,0.029C28.982,68.074,28.458,68.579,28.399,69.479z
		 M56.139,58.928c0,0.001,0,0.003,0,0.005c8.317,0,16.635,0,24.951-0.001c0.399,0,0.803,0.01,1.198-0.037
		c1.115-0.132,1.911-1.005,1.934-2.084c0.021-1.083-0.739-2.01-1.835-2.184c-0.392-0.063-0.798-0.05-1.196-0.05
		c-16.634,0-33.268,0-49.902,0.007c-0.478,0-0.974-0.008-1.429,0.112c-1.066,0.283-1.583,1.058-1.564,2.133
		c0.018,1.036,0.585,1.737,1.583,2c0.454,0.12,0.952,0.096,1.43,0.096C39.585,58.929,47.862,58.928,56.139,58.928z M56.262,44.951
		c8.277,0,16.556,0,24.834-0.001c0.399,0,0.805,0.021,1.198-0.03c1.119-0.146,1.9-1.017,1.928-2.104
		c0.026-1.079-0.724-2-1.832-2.188c-0.39-0.066-0.797-0.044-1.196-0.044c-16.596-0.002-33.192-0.002-49.789,0
		c-0.439,0-0.887-0.024-1.316,0.046c-1.049,0.172-1.779,1.044-1.803,2.085c-0.025,1.087,0.724,2.01,1.825,2.186
		c0.431,0.069,0.877,0.049,1.316,0.049C39.705,44.952,47.983,44.951,56.262,44.951z M70.902,81.612
		c-3.557,0-7.114-0.002-10.672,0.002c-1.647,0.002-2.629,0.779-2.667,2.094c-0.04,1.389,0.951,2.25,2.639,2.252
		c7.114,0.006,14.229,0.006,21.344-0.002c1.682-0.002,2.698-0.865,2.674-2.225c-0.023-1.315-1.01-2.115-2.646-2.117
		C78.017,81.609,74.46,81.614,70.902,81.612z M72.464,94.142c0-0.002,0-0.004,0-0.006c-3.116,0-6.231-0.002-9.348,0.002
		c-1.636,0.003-2.617,0.79-2.658,2.115c-0.042,1.373,0.96,2.241,2.644,2.242c6.151,0.008,12.304,0.006,18.456-0.002
		c1.695-0.002,2.69-0.852,2.659-2.227c-0.029-1.332-0.998-2.119-2.645-2.123C78.536,94.138,75.5,94.142,72.464,94.142z"/>
	<path fill-rule="evenodd" clip-rule="evenodd" fill="#FCFCFC" d="M51.589,106.668c-0.028,12.716-10.28,22.94-22.986,22.927
		c-12.613-0.014-22.881-10.414-22.818-23.113c0.062-12.49,10.438-22.724,23.005-22.688C41.333,83.829,51.617,94.146,51.589,106.668z
		 M44.093,101.073c-0.063-0.874-0.476-1.575-1.32-1.947c-0.961-0.423-1.791-0.119-2.516,0.574c-4.1,3.926-8.213,7.838-12.287,11.789
		c-0.609,0.592-0.982,0.656-1.666,0.09c-2.619-2.162-5.289-4.266-7.959-6.365c-1.111-0.872-2.421-0.756-3.207,0.211
		c-0.772,0.951-0.675,2.226,0.38,3.086c3.439,2.803,6.901,5.578,10.39,8.318c1.003,0.789,2.007,0.716,2.936-0.168
		c4.834-4.604,9.644-9.234,14.462-13.854C43.789,102.344,44.07,101.788,44.093,101.073z"/>
	<path fill-rule="evenodd" clip-rule="evenodd" fill="#FCFCFC" d="M56.205,28.073c-5.677,0-11.354-0.018-17.031,0.019
		c-0.912,0.005-1.258-0.201-1.234-1.188c0.067-2.797,0.045-5.597,0.011-8.395c-0.01-0.773,0.221-1.039,1.023-1.023
		c2.558,0.048,5.117,0.023,7.676,0.014c2.062-0.008,2.899-1.034,2.523-3.063c-0.776-4.189,1.974-8.007,6.173-8.573
		c4.051-0.546,7.759,2.519,8.101,6.687c0.061,0.728-0.066,1.433-0.178,2.143c-0.275,1.732,0.582,2.78,2.352,2.798
		c2.6,0.027,5.198,0.037,7.796-0.006c0.816-0.013,1.12,0.209,1.106,1.068c-0.045,2.798-0.048,5.598,0.005,8.395
		c0.018,0.913-0.29,1.147-1.173,1.142C67.639,28.055,61.922,28.073,56.205,28.073z M56.266,9.145
		c-1.84-0.005-3.285,1.412-3.301,3.237c-0.018,1.841,1.393,3.306,3.209,3.333c1.883,0.027,3.369-1.431,3.361-3.298
		C59.525,10.596,58.081,9.15,56.266,9.145z"/>
	<path fill-rule="evenodd" clip-rule="evenodd" fill="#2A2A2A" d="M17.478,71.536c0,0.164,0,0.326,0,0.489
		c-1.758-0.211-2.664-0.979-3.004-2.546c-0.31-1.426,0.151-2.55,1.329-3.241c0,0,0.037,0.044,0.037,0.044
		c-0.167,0.312-0.323,0.629-0.502,0.933C14.167,69.195,15.191,71.267,17.478,71.536z"/>
	<path fill-rule="evenodd" clip-rule="evenodd" fill="#2A2A2A" d="M17.479,65.537c-0.006,0.164-0.012,0.328-0.018,0.492
		c-0.541,0.084-1.081,0.169-1.622,0.254c0,0-0.037-0.044-0.037-0.044C16.235,65.702,16.902,65.727,17.479,65.537z"/>
	<path fill-rule="evenodd" clip-rule="evenodd" fill="#060606" d="M56.139,58.928c-8.276,0-16.553,0.001-24.831-0.004
		c-0.478,0-0.976,0.024-1.43-0.096c-0.998-0.264-1.565-0.965-1.583-2c-0.019-1.075,0.498-1.85,1.564-2.133
		c0.455-0.12,0.951-0.112,1.429-0.112c16.634-0.007,33.268-0.008,49.902-0.007c0.398,0,0.805-0.012,1.196,0.05
		c1.096,0.174,1.856,1.101,1.835,2.184c-0.022,1.079-0.818,1.952-1.934,2.084c-0.396,0.047-0.799,0.037-1.198,0.037
		c-8.316,0.002-16.634,0.001-24.951,0.001C56.139,58.932,56.139,58.93,56.139,58.928z"/>
	<path fill-rule="evenodd" clip-rule="evenodd" fill="#060606" d="M56.262,44.951c-8.279,0-16.557,0.001-24.835-0.001
		c-0.439,0-0.886,0.02-1.316-0.049c-1.101-0.176-1.85-1.099-1.825-2.186c0.024-1.041,0.754-1.913,1.803-2.085
		c0.43-0.07,0.877-0.045,1.316-0.046c16.596-0.001,33.193-0.001,49.789,0c0.399,0,0.807-0.022,1.196,0.044
		c1.108,0.189,1.858,1.109,1.832,2.188c-0.027,1.087-0.809,1.958-1.928,2.104c-0.394,0.051-0.799,0.03-1.198,0.03
		C72.817,44.951,64.539,44.951,56.262,44.951z"/>
	<path fill-rule="evenodd" clip-rule="evenodd" fill="#060606" d="M70.902,81.613c3.558,0.001,7.114-0.004,10.672,0.003
		c1.636,0.002,2.622,0.802,2.646,2.117c0.024,1.359-0.992,2.223-2.674,2.225c-7.114,0.008-14.229,0.008-21.344,0.002
		c-1.688-0.002-2.679-0.863-2.639-2.252c0.038-1.314,1.02-2.092,2.667-2.094C63.788,81.61,67.346,81.612,70.902,81.613z"/>
	<path fill-rule="evenodd" clip-rule="evenodd" fill="#060606" d="M72.464,94.142c3.036,0,6.072-0.004,9.108,0.002
		c1.646,0.004,2.615,0.791,2.645,2.123c0.031,1.375-0.964,2.225-2.659,2.227c-6.152,0.008-12.305,0.01-18.456,0.002
		c-1.684-0.001-2.686-0.869-2.644-2.242c0.041-1.325,1.022-2.112,2.658-2.115c3.116-0.004,6.231-0.002,9.348-0.002
		C72.464,94.138,72.464,94.14,72.464,94.142z"/>
	<path fill-rule="evenodd" clip-rule="evenodd" fill="#060606" d="M78.951,67.762c1.073-0.017,2.149-0.086,3.221-0.039
		c1.235,0.054,2.074,1.009,2.044,2.199c-0.029,1.132-0.869,2.04-2.046,2.087c-1.152,0.047-2.309-0.01-3.463-0.021
		c0.098-1-0.081-1.752-1.346-1.723c-0.435,0.01-0.871-0.164-1.063-0.646C77.694,69.731,78.346,68.78,78.951,67.762z"/>
	<path fill-rule="evenodd" clip-rule="evenodd" fill="#060606" d="M52.311,67.751c0.953-0.105,1.906-0.088,2.859,0.006
		c-0.074,1.548-0.057,3.07,1.205,4.238c-1.756-0.002-3.512-0.003-5.268-0.004C52.281,70.798,52.411,69.308,52.311,67.751z"/>
	<path fill-rule="evenodd" clip-rule="evenodd" fill="#060606" d="M56.867,67.739c1.516,0,3.03,0.001,4.545,0.002
		c0.035,1.416,0.069,2.833,0.104,4.25c-0.909-0.001-1.818-0.002-2.729-0.002c0.533-0.762,1.322-1.391,1.207-2.475
		c-0.05-0.473,0.014-1.021-0.599-1.141c-0.513-0.1-0.771,0.307-0.976,0.707c-0.071,0.14-0.108,0.297-0.168,0.443
		c-0.132,0.321-0.354,0.535-0.722,0.492c-0.426-0.048-0.61-0.354-0.636-0.737C56.859,68.768,56.875,68.253,56.867,67.739z"/>
	<path fill-rule="evenodd" clip-rule="evenodd" fill="#060606" d="M40.072,67.763c0.953-0.004,1.906-0.009,2.859-0.013
		c0.098,1.411-0.154,2.841,0.242,4.235c-0.635,0-1.271,0-1.905,0.001c0-1.102,0-2.202,0-3.304c-0.253,0.697-0.277,1.4-0.347,2.1
		c-0.028,0.275-0.155,0.59-0.509,0.54c-0.279-0.04-0.314-0.335-0.317-0.574C40.079,69.753,40.078,68.759,40.072,67.763z"/>
	<path fill-rule="evenodd" clip-rule="evenodd" fill="#060606" d="M34.054,71.989c-0.795,0-1.591,0-2.387-0.002
		c0.132-1.232-0.398-1.801-1.653-1.662c-0.691,0.076-1.249-0.174-1.654-0.747c-0.022-0.047-0.01-0.081,0.038-0.103
		c0.378,0.117,0.684,0.049,0.865-0.337l-0.005,0.005c0.68-0.205,1.11-0.633,1.217-1.353c0.629-0.157,1.264-0.1,1.898-0.058
		C32.192,69.444,32.842,70.828,34.054,71.989z"/>
	<path fill-rule="evenodd" clip-rule="evenodd" fill="#060606" d="M67.895,71.993c-0.594-0.002-1.187-0.004-1.779-0.004
		c0.038-1.411,0.077-2.822,0.115-4.232c0.953-0.001,1.906-0.003,2.86-0.005c-0.009,0.989-0.01,1.978-0.032,2.966
		c-0.005,0.234-0.065,0.533-0.355,0.528c-0.305-0.005-0.297-0.314-0.319-0.546c-0.07-0.717,0.091-1.461-0.261-2.158
		C67.764,69.68,67.951,70.845,67.895,71.993z"/>
	<path fill-rule="evenodd" clip-rule="evenodd" fill="#060606" d="M48.693,71.985c-0.315,0-0.631,0-0.946,0.001
		c0-1.411,0.001-2.823,0.002-4.235c0.954-0.002,1.908-0.004,2.861-0.006c-0.146,0.798,0.485,1.951-0.672,2.292
		C48.825,70.368,48.609,71.018,48.693,71.985z"/>
	<path fill-rule="evenodd" clip-rule="evenodd" fill="#2A2A2A" d="M56.867,67.739c0.008,0.514-0.008,1.028,0.027,1.54
		c0.025,0.384,0.21,0.689,0.636,0.737c0.368,0.043,0.59-0.171,0.722-0.492c0.06-0.146,0.097-0.304,0.168-0.443
		c0.205-0.4,0.463-0.807,0.976-0.707c0.612,0.119,0.549,0.668,0.599,1.141c0.115,1.084-0.674,1.713-1.207,2.475
		c-0.804,0.002-1.607,0.004-2.412,0.006c-1.262-1.168-1.279-2.689-1.205-4.238c0.166-0.005,0.332-0.011,0.498-0.016
		c0.021,1.137-0.271,2.35,0.77,3.242c0.725,0.621,1.533,0.754,2.291,0.15c0.609-0.484,1.127-1.104,0.666-2
		c-0.434,0.082-0.387,0.441-0.539,0.654c-0.357,0.505-0.76,0.994-1.449,0.851c-0.742-0.155-0.969-0.772-1.016-1.448
		c-0.034-0.477-0.016-0.958-0.02-1.436C56.537,67.75,56.702,67.744,56.867,67.739z"/>
	<path fill-rule="evenodd" clip-rule="evenodd" fill="#060606" d="M72.708,67.739c0.475,0.003,0.948,0.007,1.423,0.011
		c-0.466,1.736,0.4,3.021,1.443,4.244c-0.995,0-1.99,0-2.985,0C72.628,70.575,72.668,69.157,72.708,67.739z"/>
	<path fill-rule="evenodd" clip-rule="evenodd" fill="#2A2A2A" d="M75.574,71.993c-1.043-1.223-1.909-2.508-1.443-4.244
		c0.166,0,0.332,0,0.499,0.001c-0.003,0.515-0.043,1.034-0.001,1.545c0.122,1.47,1.377,2.449,2.814,2.23
		c0.235-0.035,0.534-0.041,0.556-0.33c0.022-0.301-0.28-0.313-0.508-0.379c-2.166-0.629-2.165-0.631-2.157-3.083
		c0.166,0.014,0.333,0.028,0.499,0.042c0.086,0.634-0.316,1.392,0.47,1.847l-0.005-0.005c0.192,0.481,0.629,0.655,1.063,0.646
		c1.265-0.029,1.443,0.723,1.346,1.723C77.663,71.989,76.619,71.991,75.574,71.993z"/>
	<path fill-rule="evenodd" clip-rule="evenodd" fill="#060606" d="M36.696,71.999c-0.236-0.006-0.471-0.013-0.707-0.019
		c0.179-0.669,0.421-1.407-0.484-1.71c-1.316-0.438-1.596-1.297-1.194-2.514c0.713-0.109,1.426-0.102,2.139,0.002
		C36.746,69.159,36.696,70.581,36.696,71.999z"/>
	<path fill-rule="evenodd" clip-rule="evenodd" fill="#060606" d="M63.111,67.757c0.473-0.005,0.947-0.009,1.42-0.014
		c0.038,1.414,0.076,2.828,0.113,4.242c-0.592-0.002-1.184-0.004-1.775-0.006C63.292,70.592,63.044,69.165,63.111,67.757z"/>
	<path fill-rule="evenodd" clip-rule="evenodd" fill="#060606" d="M15.84,66.283c0.541-0.084,1.081-0.169,1.622-0.254
		c-0.002,0.314-0.004,0.629-0.006,0.943c-0.541-0.001-1.014,0.104-1.158,0.731l0.005-0.005c-0.747,0.328-0.79,0.939-0.599,1.599
		c0.25,0.862,0.822,1.336,1.757,1.291c0.005,0.316,0.011,0.631,0.017,0.947c-2.286-0.27-3.311-2.341-2.14-4.32
		C15.517,66.912,15.673,66.594,15.84,66.283z"/>
	<path fill-rule="evenodd" clip-rule="evenodd" fill="#060606" d="M71.014,71.986c-0.556,0.001-1.111,0.002-1.667,0.003
		c0.396-1.396,0.157-2.83,0.242-4.245c0.395-0.001,0.789-0.002,1.184-0.004C71.197,69.136,70.944,70.571,71.014,71.986z"/>
	<path fill-rule="evenodd" clip-rule="evenodd" fill="#2A2A2A" d="M48.693,71.985c-0.084-0.968,0.131-1.617,1.246-1.947
		c1.157-0.342,0.526-1.494,0.672-2.292c0.166,0.001,0.332,0.001,0.498,0.002c-0.004,0.436-0.015,0.871-0.011,1.306
		c0.006,0.68-0.152,1.238-0.864,1.535c-0.309,0.129-0.987,0.098-0.74,0.658c0.201,0.459,0.767,0.268,1.175,0.109
		c0.517-0.199,0.798-0.6,0.952-1.133c0.235-0.817,0.191-1.646,0.192-2.477c0.167,0.001,0.333,0.003,0.499,0.005
		c0.101,1.556-0.029,3.046-1.204,4.24C50.302,72.083,49.498,72.101,48.693,71.985z"/>
	<path fill-rule="evenodd" clip-rule="evenodd" fill="#2A2A2A" d="M34.311,67.756c-0.402,1.217-0.123,2.076,1.194,2.514
		c0.906,0.303,0.663,1.041,0.484,1.71c-0.645,0.104-1.29,0.099-1.935,0.009c-1.212-1.161-1.862-2.545-1.68-4.256
		c0.166,0.012,0.332,0.023,0.498,0.034c0.013,0.476-0.017,0.957,0.047,1.425c0.16,1.162,1.09,2.186,1.991,2.253
		c0.204,0.015,0.419,0.021,0.539-0.163c0.148-0.227-0.012-0.371-0.208-0.449c-1.438-0.564-1.687-1.762-1.666-3.107
		C33.82,67.736,34.065,67.746,34.311,67.756z"/>
	<path fill-rule="evenodd" clip-rule="evenodd" fill="#060606" d="M44.631,67.756c0.473-0.106,0.946-0.097,1.42-0.005
		c0.039,1.412,0.077,2.824,0.115,4.236c-0.598-0.002-1.196-0.006-1.794-0.008C44.832,70.595,44.55,69.163,44.631,67.756z"/>
	<path fill-rule="evenodd" clip-rule="evenodd" fill="#060606" d="M56.371,67.754c0.004,0.479-0.015,0.959,0.02,1.436
		c0.047,0.676,0.273,1.293,1.016,1.448c0.689,0.144,1.092-0.346,1.449-0.851c0.152-0.213,0.105-0.572,0.539-0.654
		c0.461,0.896-0.057,1.516-0.666,2c-0.758,0.604-1.566,0.471-2.291-0.15c-1.041-0.893-0.748-2.105-0.77-3.242
		C55.902,67.746,56.137,67.75,56.371,67.754z"/>
	<path fill-rule="evenodd" clip-rule="evenodd" fill="#060606" d="M38.386,67.731c0.396,0.003,0.791,0.006,1.187,0.009
		c0.104,1.414-0.149,2.847,0.24,4.246c-0.555,0-1.11,0-1.665-0.001C38.542,70.584,38.287,69.147,38.386,67.731z"/>
	<path fill-rule="evenodd" clip-rule="evenodd" fill="#2A2A2A" d="M38.386,67.731c-0.099,1.417,0.155,2.853-0.238,4.253
		c-0.484,0.005-0.968,0.009-1.452,0.015c0-1.418,0.05-2.84-0.246-4.241c0.166-0.007,0.332-0.015,0.498-0.022
		c0.126,1.187,0.253,2.375,0.379,3.562c0.129-0.008,0.258-0.014,0.387-0.021c0.299-1.163,0.243-2.341-0.062-3.529
		C37.897,67.743,38.142,67.737,38.386,67.731z"/>
	<path fill-rule="evenodd" clip-rule="evenodd" fill="#2A2A2A" d="M46.166,71.987c-0.039-1.412-0.077-2.824-0.115-4.236
		c0.166-0.001,0.332-0.002,0.499-0.003c0.108,1.178-0.214,2.401,0.388,3.542c0.502-1.156,0.254-2.364,0.315-3.544
		c0.166,0.001,0.332,0.004,0.498,0.006c-0.001,1.412-0.002,2.824-0.002,4.235C47.22,71.987,46.693,71.987,46.166,71.987z"/>
	<path fill-rule="evenodd" clip-rule="evenodd" fill="#2A2A2A" d="M71.014,71.986c-0.069-1.415,0.184-2.851-0.241-4.246
		c0.245,0,0.49-0.001,0.735-0.002c-0.003,1.032-0.012,2.063-0.005,3.097c0.002,0.225-0.042,0.551,0.256,0.59
		c0.393,0.053,0.416-0.314,0.423-0.575c0.026-1.031,0.022-2.063,0.029-3.096c0.165-0.005,0.331-0.01,0.497-0.015
		c-0.04,1.418-0.08,2.836-0.119,4.254C72.063,71.991,71.538,71.989,71.014,71.986z"/>
	<path fill-rule="evenodd" clip-rule="evenodd" fill="#2A2A2A" d="M64.645,71.985c-0.037-1.414-0.075-2.828-0.113-4.242
		c0.166,0.002,0.332,0.005,0.498,0.008c0.001,0.987-0.004,1.975,0.006,2.962c0.003,0.231,0.019,0.542,0.322,0.536
		c0.281-0.005,0.342-0.305,0.347-0.541c0.02-0.986,0.021-1.975,0.028-2.961c0.166,0.003,0.332,0.007,0.498,0.01
		c-0.038,1.41-0.077,2.821-0.115,4.232C65.625,72.083,65.135,72.085,64.645,71.985z"/>
	<path fill-rule="evenodd" clip-rule="evenodd" fill="#060606" d="M75.334,67.735c-0.008,2.452-0.009,2.454,2.157,3.083
		c0.228,0.065,0.53,0.078,0.508,0.379c-0.021,0.289-0.32,0.295-0.556,0.33c-1.438,0.219-2.692-0.761-2.814-2.23
		c-0.042-0.512-0.002-1.03,0.001-1.545C74.864,67.746,75.099,67.74,75.334,67.735z"/>
	<path fill-rule="evenodd" clip-rule="evenodd" fill="#2A2A2A" d="M63.111,67.757c-0.067,1.408,0.181,2.834-0.242,4.222
		c-0.451,0.004-0.902,0.008-1.354,0.012c-0.034-1.416-0.068-2.834-0.104-4.25c0.166,0.004,0.332,0.008,0.498,0.012
		c0.008,0.987,0.01,1.976,0.031,2.963c0.004,0.233,0.066,0.532,0.354,0.53c0.303-0.002,0.317-0.313,0.319-0.543
		c0.009-0.987,0.001-1.975-0.001-2.963C62.779,67.747,62.945,67.752,63.111,67.757z"/>
	<path fill-rule="evenodd" clip-rule="evenodd" fill="#2A2A2A" d="M44.631,67.756c-0.081,1.407,0.201,2.839-0.259,4.224
		c-0.399,0.104-0.799,0.101-1.199,0.006c-0.396-1.395-0.144-2.824-0.242-4.235c0.166-0.001,0.332-0.001,0.498-0.002
		c0.01,0.988,0.013,1.975,0.034,2.962c0.005,0.234,0.063,0.535,0.347,0.537c0.302,0.002,0.318-0.309,0.32-0.541
		c0.009-0.986,0.002-1.975,0.001-2.962C44.298,67.748,44.464,67.752,44.631,67.756z"/>
	<path fill-rule="evenodd" clip-rule="evenodd" fill="#2A2A2A" d="M69.589,67.744c-0.085,1.415,0.153,2.849-0.242,4.245
		c-0.483,0.001-0.968,0.002-1.452,0.004c0.057-1.148-0.131-2.313,0.229-3.451c0.352,0.697,0.19,1.441,0.261,2.158
		c0.022,0.231,0.015,0.541,0.319,0.546c0.29,0.005,0.351-0.294,0.355-0.528c0.022-0.988,0.023-1.977,0.032-2.966
		C69.257,67.75,69.423,67.747,69.589,67.744z"/>
	<path fill-rule="evenodd" clip-rule="evenodd" fill="#060606" d="M51.812,67.747c-0.001,0.831,0.043,1.66-0.192,2.477
		c-0.154,0.533-0.435,0.934-0.952,1.133c-0.409,0.158-0.974,0.35-1.175-0.109c-0.247-0.561,0.431-0.529,0.74-0.658
		c0.712-0.297,0.87-0.855,0.864-1.535c-0.004-0.436,0.007-0.871,0.011-1.306C51.343,67.747,51.578,67.747,51.812,67.747z"/>
	<path fill-rule="evenodd" clip-rule="evenodd" fill="#060606" d="M33.575,67.726c-0.021,1.345,0.228,2.542,1.666,3.107
		c0.197,0.078,0.356,0.223,0.208,0.449c-0.119,0.184-0.334,0.178-0.539,0.163c-0.901-0.067-1.831-1.091-1.991-2.253
		c-0.064-0.469-0.034-0.95-0.047-1.425C33.106,67.753,33.341,67.74,33.575,67.726z"/>
	<path fill-rule="evenodd" clip-rule="evenodd" fill="#2A2A2A" d="M39.813,71.985c-0.389-1.398-0.136-2.832-0.24-4.246
		c0.167,0.007,0.333,0.016,0.499,0.023c0.006,0.996,0.007,1.99,0.022,2.985c0.003,0.239,0.039,0.534,0.317,0.574
		c0.354,0.05,0.481-0.265,0.509-0.54c0.07-0.699,0.094-1.402,0.347-2.1c0,1.102,0,2.202,0,3.304
		C40.783,71.985,40.298,71.985,39.813,71.985z"/>
	<path fill-rule="evenodd" clip-rule="evenodd" fill="#060606" d="M17.485,67.464c0,0.878-0.001,1.755-0.002,2.632
		c-1.373-0.227-1.581-0.648-1.18-2.398l-0.005,0.005C16.693,67.624,17.089,67.544,17.485,67.464z"/>
	<path fill-rule="evenodd" clip-rule="evenodd" fill="#2A2A2A" d="M28.36,69.578c0.405,0.573,0.962,0.823,1.654,0.747
		c1.255-0.139,1.785,0.43,1.653,1.662c-0.581,0.075-1.162,0.157-1.724-0.1c0.21-0.419,1.148-0.195,0.949-0.784
		c-0.179-0.53-0.899-0.269-1.383-0.257c-0.256,0.006-0.508,0.172-0.761,0.265C28.354,70.667,28.129,70.181,28.36,69.578z"/>
	<path fill-rule="evenodd" clip-rule="evenodd" fill="#060606" d="M72.211,67.754c-0.007,1.032-0.003,2.064-0.029,3.096
		c-0.007,0.261-0.03,0.628-0.423,0.575c-0.298-0.039-0.254-0.365-0.256-0.59c-0.007-1.033,0.002-2.064,0.005-3.097
		C71.742,67.744,71.977,67.749,72.211,67.754z"/>
	<path fill-rule="evenodd" clip-rule="evenodd" fill="#060606" d="M37.652,67.749c0.305,1.188,0.361,2.366,0.062,3.529
		c-0.129,0.007-0.258,0.013-0.387,0.021c-0.126-1.188-0.253-2.375-0.379-3.562C37.182,67.74,37.417,67.744,37.652,67.749z"/>
	<path fill-rule="evenodd" clip-rule="evenodd" fill="#060606" d="M62.613,67.741c0.002,0.988,0.01,1.976,0.001,2.963
		c-0.002,0.23-0.017,0.541-0.319,0.543c-0.287,0.002-0.35-0.297-0.354-0.53c-0.021-0.987-0.023-1.976-0.031-2.963
		C62.145,67.75,62.379,67.746,62.613,67.741z"/>
	<path fill-rule="evenodd" clip-rule="evenodd" fill="#060606" d="M65.732,67.747c-0.008,0.987-0.009,1.975-0.028,2.961
		c-0.005,0.236-0.065,0.536-0.347,0.541c-0.304,0.006-0.319-0.305-0.322-0.536c-0.01-0.987-0.005-1.975-0.006-2.962
		C65.264,67.75,65.498,67.748,65.732,67.747z"/>
	<path fill-rule="evenodd" clip-rule="evenodd" fill="#060606" d="M47.252,67.746c-0.061,1.18,0.187,2.388-0.315,3.544
		c-0.602-1.141-0.279-2.364-0.388-3.542C46.784,67.747,47.018,67.747,47.252,67.746z"/>
	<path fill-rule="evenodd" clip-rule="evenodd" fill="#060606" d="M44.132,67.744c0.001,0.987,0.007,1.976-0.001,2.962
		c-0.002,0.232-0.018,0.543-0.32,0.541c-0.284-0.002-0.342-0.303-0.347-0.537c-0.021-0.987-0.024-1.975-0.034-2.962
		C43.664,67.747,43.898,67.746,44.132,67.744z"/>
	<path fill-rule="evenodd" clip-rule="evenodd" fill="#2A2A2A" d="M78.951,67.762c-0.605,1.019-1.257,1.97-2.653,1.857l0.005,0.005
		c-0.06-0.648,0.045-1.277,0.232-1.897c0.245,0.012,0.49,0.023,0.735,0.034c0.001,0.458-0.861,0.892-0.378,1.175
		c0.516,0.303,0.881-0.445,1.204-0.872c0.067-0.089,0.08-0.22,0.117-0.332C78.46,67.742,78.705,67.752,78.951,67.762z"/>
	<path fill-rule="evenodd" clip-rule="evenodd" fill="#060606" d="M28.748,71.111c0.253-0.093,0.505-0.259,0.761-0.265
		c0.484-0.012,1.205-0.273,1.383,0.257c0.199,0.589-0.739,0.365-0.949,0.784C29.444,71.784,28.993,71.606,28.748,71.111z"/>
	<path fill-rule="evenodd" clip-rule="evenodd" fill="#2A2A2A" d="M16.303,67.699c-0.401,1.75-0.193,2.171,1.18,2.398
		c-0.007,0.164-0.014,0.328-0.021,0.492c-0.935,0.045-1.507-0.429-1.757-1.291C15.513,68.638,15.556,68.026,16.303,67.699z"/>
	<path fill-rule="evenodd" clip-rule="evenodd" fill="#060606" d="M78.214,67.732c-0.037,0.112-0.05,0.243-0.117,0.332
		c-0.323,0.427-0.688,1.175-1.204,0.872c-0.483-0.283,0.379-0.717,0.378-1.175C77.585,67.751,77.899,67.742,78.214,67.732z"/>
	<path fill-rule="evenodd" clip-rule="evenodd" fill="#060606" d="M76.535,67.727c-0.188,0.62-0.292,1.249-0.232,1.897
		c-0.786-0.455-0.384-1.213-0.47-1.847C76.066,67.76,76.301,67.744,76.535,67.727z"/>
	<path fill-rule="evenodd" clip-rule="evenodd" fill="#2A2A2A" d="M30.476,67.791c-0.107,0.72-0.538,1.148-1.217,1.353
		c0.182-0.441,0.363-0.883,0.545-1.324C30.021,67.641,30.246,67.678,30.476,67.791z"/>
	<path fill-rule="evenodd" clip-rule="evenodd" fill="#060606" d="M29.804,67.819c-0.182,0.441-0.364,0.883-0.545,1.324l0.005-0.005
		c-0.288,0.114-0.576,0.228-0.864,0.341C28.458,68.579,28.982,68.074,29.804,67.819z"/>
	<path fill-rule="evenodd" clip-rule="evenodd" fill="#2A2A2A" d="M17.485,67.464c-0.396,0.08-0.792,0.159-1.187,0.239
		c0.144-0.627,0.617-0.733,1.158-0.731C17.465,67.136,17.475,67.3,17.485,67.464z"/>
	<path fill-rule="evenodd" clip-rule="evenodd" fill="#2A2A2A" d="M28.399,69.479c0.288-0.113,0.576-0.227,0.864-0.341
		c-0.182,0.386-0.487,0.454-0.865,0.337L28.399,69.479z"/>
	<path fill-rule="evenodd" clip-rule="evenodd" fill="#060606" d="M44.093,101.073c-0.023,0.715-0.305,1.271-0.787,1.733
		c-4.818,4.62-9.627,9.251-14.462,13.854c-0.929,0.884-1.933,0.957-2.936,0.168c-3.488-2.74-6.951-5.516-10.39-8.318
		c-1.056-0.86-1.153-2.135-0.38-3.086c0.785-0.967,2.096-1.083,3.207-0.211c2.671,2.1,5.34,4.203,7.959,6.365
		c0.684,0.566,1.057,0.502,1.666-0.09c4.074-3.951,8.187-7.863,12.287-11.789c0.725-0.693,1.555-0.997,2.516-0.574
		C43.618,99.498,44.031,100.199,44.093,101.073z"/>
	<path fill-rule="evenodd" clip-rule="evenodd" fill="#060606" d="M56.266,9.145c1.815,0.005,3.26,1.451,3.27,3.272
		c0.008,1.867-1.479,3.326-3.361,3.298c-1.816-0.027-3.227-1.492-3.209-3.333C52.98,10.557,54.426,9.14,56.266,9.145z"/>
</g>
</svg>
