<?xml version="1.0" encoding="utf-8"?>
<!-- Generator: Adobe Illustrator 16.0.3, SVG Export Plug-In . SVG Version: 6.00 Build 0)  -->
<!DOCTYPE svg PUBLIC "-//W3C//DTD SVG 1.1//EN" "http://www.w3.org/Graphics/SVG/1.1/DTD/svg11.dtd">
<svg version="1.1" id="Capa_1" xmlns="http://www.w3.org/2000/svg" xmlns:xlink="http://www.w3.org/1999/xlink" x="0px" y="0px"
	 width="68px" height="69.75px" viewBox="6.643 12.285 68 69.75" enable-background="new 6.643 12.285 68 69.75"
	 xml:space="preserve">
<g>
	<path fill="#FFFFFF" d="M64.424,81.591c-1.329-0.053-3.236-0.868-4.687-2.302c-2.593-2.57-5.854-2.895-9.151-3.098
		c-7.151-0.437-14.31-0.59-21.476-0.075c-1.461,0.104-2.563,0.55-3.606,1.489c-5.148,4.646-8.614,3.814-14.576,1.625
		c-0.479-0.175-0.994-0.489-0.884-1.149c0.104-0.613,0.648-0.812,1.149-0.945c1.809-0.488,3.611-1.021,5.447-1.374
		c1.271-0.241,1.677-0.829,1.362-2.03c-0.492-1.883-1.005-3.762-1.447-5.655c-0.313-1.347-1.104-1.644-2.34-1.312
		c-1.881,0.508-3.782,0.938-5.655,1.471c-0.62,0.178-1.184,0.393-1.612-0.229c-0.335-0.483-0.155-0.959,0.12-1.467
		c3.371-6.199,10.001-8.048,14.808-3.647c2.24,2.051,4.899,2.752,7.802,3.08c7.595,0.858,15.184,0.881,22.78,0.103
		c1.805-0.188,3.205-1.043,4.522-2.263c3.444-3.186,10.021-3.51,13.841-0.801c0.316,0.225,0.674,0.415,0.641,0.84
		c-0.051,0.611-0.49,0.862-1.049,1.002c-1.817,0.453-3.621,0.974-5.449,1.386c-1.41,0.318-1.848,1.02-1.396,2.432
		c0.479,1.496,0.937,3.024,1.146,4.574c0.298,2.188,1.43,2.438,3.271,1.877c1.718-0.522,3.493-0.842,5.229-1.297
		c0.546-0.144,1.033-0.272,1.38,0.295c0.267,0.436,0.088,0.854-0.099,1.282C72.991,78.872,68.859,81.637,64.424,81.591z"/>
	<path fill="#FFFFFF" d="M54.297,33.015c0.162,1.142-0.023,2.241-0.578,2.945c-1.719,2.188-2.607,4.896-4.432,6.979
		c-5.736,6.561-14.7,5.355-18.789-2.507c-0.619-1.189-1.224-2.325-2.113-3.381c-1.808-2.144-1.707-6.063,0.171-8.149
		c0.759-0.845,0.876-1.655,0.83-2.639c-0.265-5.8,2.166-9.796,7.736-11.819c1.348-0.488,2.365-2.259,3.985-1.586
		c2.721,1.129,5.559,2.146,7.756,4.233c1.74,1.652,2.901,3.721,3.146,6.091c0.26,2.479-0.23,5.028,1.762,7.148
		C54.323,30.915,54.575,32.115,54.297,33.015z M51.434,30.064c-1.105,1.816-2.229,2.014-4.188,0.833
		c-4.221-2.547-8.771-2.517-13.029-0.003c-1.856,1.097-3.083,1.191-4.188-0.919c-1.275,1.881-1.668,3.99-0.396,5.392
		c1.549,1.706,2.069,3.857,3.374,5.598c0.904,1.204,1.944,2.288,3.266,3.064c5.029,2.958,10.854,0.609,13.501-5.423
		c0.32-0.729,0.373-1.567,1.056-2.17C52.877,34.623,53.049,32.787,51.434,30.064z"/>
	<path fill="#FFFFFF" d="M40.758,61.698c-2.789,0-5.584-0.118-8.361,0.045c-1.682,0.099-2.179-0.486-2.32-2.074
		c-0.194-2.16-0.637-4.306-1.079-6.435c-0.145-0.688,0.236-2.146-1.39-1.543c-1.172,0.438-3.022,0.222-2.259,2.563
		c0.795,2.434,0.896,5.01,1.119,7.555c0.102,1.152-0.15,1.327-1.211,0.896c-2.527-1.031-4.2-3.392-6.829-4.288
		c-0.615-0.21-0.313-1.066-0.134-1.627c0.761-2.37,2.479-3.889,4.571-5.055c3.063-1.704,6.435-2.418,9.832-3.06
		c0.6-0.112,0.918,0.11,1.35,0.515c4.146,3.882,9.024,3.854,13.438-0.061c0.367-0.326,0.665-0.577,1.163-0.478
		c4.271,0.857,8.569,1.625,12.067,4.55c0.888,0.739,1.602,1.601,2.106,2.612c1.033,2.07,0.757,2.608-1.487,3.146
		c-1.811,0.434-3.252,1.491-4.631,2.682c-0.478,0.413-0.945,1.265-1.67,0.808c-0.59-0.37,0.004-1.077,0.036-1.64
		c0.146-2.481,0.702-4.893,1.146-7.326c0.381-2.096-1.596-1.188-2.396-1.762c-1.061-0.759-1.154,0.377-1.279,1.053
		c-0.441,2.435-0.975,4.861-1.207,7.315c-0.138,1.448-0.734,1.664-1.981,1.629C46.487,61.644,43.624,61.698,40.758,61.698z"/>
	<path fill="#FFFFFF" d="M51.434,30.064c1.613,2.723,1.441,4.559-0.604,6.372c-0.683,0.603-0.733,1.439-1.056,2.17
		c-2.647,6.032-8.472,8.381-13.501,5.423c-1.32-0.776-2.36-1.86-3.266-3.064c-1.305-1.739-1.825-3.892-3.374-5.598
		c-1.271-1.401-0.88-3.511,0.396-5.392c1.104,2.11,2.332,2.016,4.188,0.919c4.258-2.513,8.81-2.543,13.029,0.003
		C49.208,32.077,50.329,31.881,51.434,30.064z"/>
</g>
</svg>
